<?xml version="1.0" encoding="utf-8"?>
<!-- Generator: Adobe Illustrator 24.2.1, SVG Export Plug-In . SVG Version: 6.00 Build 0)  -->
<svg version="1.1" id="Layer_1" xmlns="http://www.w3.org/2000/svg" xmlns:xlink="http://www.w3.org/1999/xlink" x="0px" y="0px"
	 viewBox="0 0 2530 1503.2" style="enable-background:new 0 0 2530 1503.2;" xml:space="preserve">
<style type="text/css">
	.st0{fill:#FFFFFF;stroke:#FFFFFF;stroke-width:30;stroke-miterlimit:10;}
</style>
<path class="st0" d="M31.3,1343.7v-278.2h347.4v-16.3H31.3V795.4h369.3v-16.3H15V1360h388.9v-16.3H31.3L31.3,1343.7z M717.1,941.8
	l-144,189.6L432.3,941.8h-21.2l152.1,201.8L396.5,1360H416l157-204.2L730.8,1360h20.3l-167.4-216.4l152.9-201.8H717.1L717.1,941.8z
	 M800.1,1503.2v-260.3h1.6c9.8,38,29,68.5,57.8,91.5c28.7,23,65.4,34.6,109.8,34.6c28.7,0,54.2-5.8,76.5-17.5
	c22.2-11.7,40.8-27.5,55.7-47.6c14.9-20.1,26.3-43.4,34.2-70c7.9-26.6,11.8-54.5,11.8-83.8c0-31.5-4.1-60.5-12.2-87.1
	c-8.1-26.6-19.9-49.6-35.4-69.2c-15.5-19.5-34.2-34.7-56.1-45.6c-22-10.8-46.8-16.3-74.4-16.3c-21.2,0-40.8,3.1-59,9.4
	c-18.2,6.2-34.3,15-48.4,26.4c-14.2,11.5-26.5,25.1-36.6,40.3c-10.3,15.5-18.2,32.4-23.6,50.8h-1.6v-117h-16.3v561.3L800.1,1503.2
	L800.1,1503.2z M969.3,1353.5c-51,0-91.9-17.5-122.8-52.5c-30.9-35-46.4-85.3-46.4-150.9c0-27.1,3.8-52.9,11.4-77.3
	c7.6-24.4,18.6-45.8,32.9-64.3c14.4-18.4,32.1-33.1,53.3-43.9c21.2-10.8,45-16.3,71.6-16.3c27.1,0,50.8,5.4,71.2,16.3
	c20.3,10.8,37.2,25.6,50.4,44.3c13.3,18.7,23.3,40.1,30.1,64.3c6.8,24.1,10.2,49.8,10.2,76.9c0,24.4-3.1,48.7-9.4,72.8
	c-6.2,24.1-15.9,45.8-28.9,65.1c-13,19.2-29.7,35-50,47.2C1022.6,1347.4,998,1353.5,969.3,1353.5L969.3,1353.5z M1236.9,1360v-236.7
	c0-22.8,3.3-45,9.8-66.7c6.5-21.7,16.5-40.8,30.1-57.4c13.6-16.5,30.8-29.6,51.7-39.1c20.9-9.5,45.7-13.4,74.4-11.8V932
	c-25-0.5-46.8,2.2-65.5,8.1c-18.7,6-34.8,14.1-48.4,24.4s-24.4,22.4-32.5,36.2s-14.2,28.8-17.9,44.3h-1.6V941.8h-16.3V1360H1236.9
	L1236.9,1360z M1423.2,1154.2H1773c1.1-28.7-1.8-56.4-8.5-83c-6.8-26.6-17.6-50.2-32.5-70.8s-34.2-37.2-57.8-49.6
	c-23.6-12.4-51.7-18.7-84.2-18.7c-23.3,0-46.1,4.9-68.3,14.6c-22.2,9.8-41.8,24-58.6,42.7c-16.8,18.7-30.4,41.6-40.7,68.8
	c-10.3,27.1-15.5,58-15.5,92.7c0,30.9,3.5,59.8,10.6,86.6c7.1,26.8,17.9,50.2,32.5,70c14.6,19.8,33.5,35.1,56.5,46
	c23,10.8,50.8,16,83.4,15.5c47.7,0,87.9-13.4,120.4-40.3s51.8-64.7,57.8-113.5h-16.3c-7.1,46.1-25.1,80.7-54.1,103.7
	c-29,23.1-65.5,34.6-109.4,34.6c-29.8,0-55-5.2-75.7-15.5c-20.6-10.3-37.4-24.4-50.4-42.3c-13-17.9-22.6-38.9-28.9-63.1
	C1427.2,1208.5,1423.8,1182.4,1423.2,1154.2L1423.2,1154.2z M1756.8,1137.9h-333.5c1.6-29.3,7-55.6,16.3-78.9
	c9.2-23.3,21.3-43.3,36.2-59.8c14.9-16.5,32.3-29.2,52.1-37.8c19.8-8.7,41.1-13,63.9-13c27.1,0,51,5,71.6,15.1
	c20.6,10,37.8,23.7,51.7,41.1c13.8,17.4,24.3,37.6,31.3,60.6C1753.3,1088.1,1756.8,1112.4,1756.8,1137.9L1756.8,1137.9z
	 M2110.7,1065.5h16.3c0-46.6-13.6-80.5-40.7-101.7c-27.1-21.2-64-31.7-110.6-31.7c-26,0-48,3.3-65.9,9.8s-32.5,14.9-43.9,25.2
	c-11.4,10.3-19.5,21.7-24.4,34.2s-7.3,24.4-7.3,35.8c0,22.8,4.1,40.9,12.2,54.5s20.9,24.1,38.2,31.7c11.9,5.4,25.5,10.3,40.7,14.6
	c15.2,4.3,32.8,8.9,52.9,13.8c17.9,4.3,35.5,8.7,52.9,13c17.4,4.3,32.7,10.2,46,17.5c13.3,7.3,24.1,16.7,32.5,28.1
	c8.4,11.4,12.6,26.3,12.6,44.7c0,17.9-4.2,33.1-12.6,45.6c-8.3,12.4-19.3,22.8-32.1,30.5c-13,7.9-27.5,13.6-43.5,17.1
	s-31.6,5.3-46.8,5.3c-49.4,0-87.2-11-113.5-32.9c-26.3-22-39.5-56.5-39.5-103.7h-16.3c0,52.6,14.2,91.1,42.7,115.5
	s70.6,36.6,126.5,36.6c17.9,0,35.9-2,54.1-6.1c18.2-4.1,34.4-10.7,48.8-19.9c14.2-9.1,26.2-21.3,35-35.8c9-14.6,13.4-32.5,13.4-53.7
	c0-20.1-3.9-36.3-11.8-48.8c-7.9-12.5-18.2-22.8-30.9-30.9c-12.7-8.1-27.1-14.5-43.1-19.1c-16.1-4.6-32.2-9.1-48.4-13.4
	c-19.9-5.2-39.8-10.4-59.8-15.5c-17.1-4.3-32.9-9.5-47.6-15.5c-14.1-6-25.4-14.5-33.8-25.6c-8.4-11.1-12.6-27-12.6-47.6
	c0-3.8,1.1-10.6,3.3-20.3c2.2-9.8,7.3-19.7,15.5-29.7c8.1-10,20.6-19,37.4-26.8c16.8-7.9,39.9-11.8,69.2-11.8
	c20.1,0,38.4,2.2,54.9,6.5c16.5,4.3,30.8,11.3,42.7,20.7c11.9,9.5,21.2,21.6,27.7,36.2C2107.4,1026.4,2110.7,1044.3,2110.7,1065.5
	L2110.7,1065.5z M2487.3,1065.5h16.3c0-46.6-13.6-80.5-40.7-101.7c-27.1-21.2-64-31.7-110.6-31.7c-26,0-48,3.3-65.9,9.8
	s-32.5,14.9-43.9,25.2c-11.4,10.3-19.5,21.7-24.4,34.2s-7.3,24.4-7.3,35.8c0,22.8,4.1,40.9,12.2,54.5c8.1,13.6,20.9,24.1,38.2,31.7
	c11.9,5.4,25.5,10.3,40.7,14.6c15.2,4.3,32.8,8.9,52.9,13.8c17.9,4.3,35.5,8.7,52.9,13c17.4,4.3,32.7,10.2,46,17.5
	c13.3,7.3,24.1,16.7,32.5,28.1c8.4,11.4,12.6,26.3,12.6,44.7c0,17.9-4.2,33.1-12.6,45.6c-8.3,12.4-19.3,22.8-32.1,30.5
	c-13,7.9-27.5,13.6-43.5,17.1s-31.6,5.3-46.8,5.3c-49.4,0-87.2-11-113.5-32.9c-26.3-22-39.5-56.5-39.5-103.7h-16.3
	c0,52.6,14.2,91.1,42.7,115.5s70.6,36.6,126.5,36.6c17.9,0,35.9-2,54.1-6.1c18.2-4.1,34.4-10.7,48.8-19.9
	c14.2-9.1,26.2-21.3,35-35.8c9-14.6,13.4-32.5,13.4-53.7c0-20.1-3.9-36.3-11.8-48.8c-7.9-12.5-18.2-22.8-30.9-30.9
	c-12.7-8.1-27.1-14.5-43.1-19.1c-16.1-4.6-32.2-9.1-48.4-13.4c-19.9-5.2-39.8-10.4-59.8-15.5c-17.1-4.3-32.9-9.5-47.6-15.5
	c-14.1-6-25.4-14.5-33.8-25.6c-8.4-11.1-12.6-27-12.6-47.6c0-3.8,1.1-10.6,3.3-20.3c2.2-9.8,7.3-19.7,15.5-29.7
	c8.1-10,20.6-19,37.4-26.8c16.8-7.9,39.9-11.8,69.2-11.8c20.1,0,38.4,2.2,54.9,6.5c16.5,4.3,30.8,11.3,42.7,20.7
	c11.9,9.4,21.2,21.6,27.7,36.2C2484.1,1026.4,2487.3,1044.3,2487.3,1065.5L2487.3,1065.5z"/>
</svg>
