<?xml version="1.0" encoding="utf-8"?>
<!-- Generator: Adobe Illustrator 24.2.1, SVG Export Plug-In . SVG Version: 6.00 Build 0)  -->
<svg version="1.1" id="Layer_1" xmlns="http://www.w3.org/2000/svg" xmlns:xlink="http://www.w3.org/1999/xlink" x="0px" y="0px"
	 viewBox="0 0 2500 2452" style="enable-background:new 0 0 2500 2452;" xml:space="preserve">
<style type="text/css">
	.st0{fill:#00758F;}
	.st1{fill:#F29111;}
</style>
<g>
	<path class="st0" d="M1019.5,1874.5c-39.3,213.6-91,369-155.3,465.6c-50.1,74.6-105,111.9-164.7,111.9c-15.9,0-35.6-4.8-58.9-14.4
		v-51.5c11.4,1.7,24.7,2.6,40.1,2.6c27.9,0,50.3-7.7,67.4-23.1c20.5-18.8,30.7-39.9,30.7-63.3c0-16-8-48.8-23.9-98.4l-105.8-329.5
		h94.7l75.9,246.5c17.1,55.9,24.2,95,21.3,117.3c41.6-111.3,70.6-232.5,87.1-363.5L1019.5,1874.5 M601.4,2300.6H505
		c-3.4-163.2-12.8-316.6-28.2-460.4H476l-146.8,460.4h-73.5l-145.9-460.4h-0.9c-10.8,138.1-17.6,291.5-20.5,460.4H0.5
		c5.7-205.4,19.9-397.9,42.6-577.6h119.5l139.1,424.3h0.9l140-424.3H557C582,1933.5,596.8,2126.1,601.4,2300.6"/>
	<path class="st1" d="M2303.2,2300.5h-273.9V1723h92.2v506.4h181.8V2300.5 M1614.3,2184.9c-23.4-37.7-35-98.1-35-181.4
		c0-145.4,44.1-218.2,132.3-218.2c46.1,0,80,17.4,101.6,52.2c23.3,37.7,35,97.6,35,179.7c0,146.6-44.1,220-132.3,220
		C1669.7,2237.2,1635.9,2219.8,1614.3,2184.9 M1957.3,2314.5l-105.9-52.4c9.4-7.8,18.4-16.1,26.5-25.8c45-53,67.5-131.5,67.5-235.3
		c0-191.1-74.8-286.7-224.5-286.7c-73.4,0-130.6,24.2-171.6,72.8c-45,53-67.4,131.2-67.4,234.5c0,101.5,19.9,176,59.7,223.3
		c36.3,42.8,91.2,64.2,164.6,64.2c27.4,0,52.6-3.4,75.4-10.1l137.9,80.5l37.6-64.9 M1441.8,2140.4c0,49-17.9,89.2-53.7,120.7
		c-35.8,31.3-83.9,47-144.2,47c-56.3,0-111-18.1-163.9-53.9l24.8-49.6c45.5,22.8,86.7,34.2,123.7,34.2c34.7,0,61.8-7.7,81.5-23
		c19.6-15.4,31.4-36.9,31.4-64.1c0-34.3-23.9-63.6-67.6-88.2c-40.5-22.6-80.9-45.5-121.1-68.6c-43.7-32-65.7-66.3-65.7-122.9
		c0-46.8,16.4-84.6,49-113.4c32.7-28.9,75-43.3,126.7-43.3c53.5,0,102.1,14.3,145.9,42.9l-22.3,49.6
		c-37.5-15.9-74.4-23.9-110.9-23.9c-29.5,0-52.4,7.1-68.2,21.4c-16,14.2-25.8,32.5-25.8,54.7c0,34.2,24.4,63.9,69.4,89
		c40.9,22.2,123.7,69.5,123.7,69.5C1419.4,2050.4,1441.8,2084.4,1441.8,2140.4 M2368.8,2300.5h15.3v-58.8h20v-12h-56v12h20.8V2300.5
		z M2485,2300.5h14.4v-70.8h-21.6l-17.6,48.2l-19.2-48.2h-20.9v70.8h13.6v-53.9h0.8l20.1,53.9h10.4l20.1-53.9V2300.5z"/>
	<path class="st0" d="M1537,750.3c-24.4-0.3-45.6,8.8-56.6,35.8c-18.8,45.4,27.8,90,43.9,113.1c11.8,16,27.1,34.2,35.5,52.3
		c4.9,11.9,6.3,24.5,11.2,37c11.1,30.7,21.5,64.9,36.2,93.6c7.6,14.7,16,30,25.7,43.2c5.6,7.7,15.3,11.2,17.4,23.8
		c-9.7,13.9-10.5,34.9-16,52.4c-25.1,78.9-15.3,176.6,20.2,234.5c11.1,17.4,37.6,55.8,73.1,41.2c31.3-12.5,24.4-52.3,33.4-87.2
		c2.1-8.5,0.7-14,4.9-19.6v1.4c9.7,19.5,19.5,38.3,28.6,57.9c21.6,34.2,59.2,69.7,90.5,93.5c16.7,12.6,29.9,34.2,50.8,41.9v-2.1
		h-1.4c-4.2-6.3-10.4-9.1-16-13.9c-12.5-12.6-26.4-27.9-36.2-41.9c-29.2-39-55-82.3-77.9-127c-11.2-21.7-20.9-45.4-30-67
		c-4.2-8.3-4.2-21-11.1-25.1c-10.5,15.3-25.8,28.6-33.4,47.4c-13.2,30.1-14.6,67-19.5,105.4c-2.7,0.7-1.4,0-2.7,1.4
		c-22.3-5.6-29.9-28.6-38.3-48.1c-20.9-49.6-24.4-129.2-6.3-186.4c4.8-14.6,25.8-60.7,17.4-74.7c-4.2-13.3-18.1-21-25.8-31.4
		c-9.7-14.1-18.1-29-25-44.7c-16.7-39.1-25.1-82.4-43.2-121.4c-8.3-18.2-23-37-34.8-53.7c-13.3-18.9-27.8-32.1-38.3-54.4
		c-3.4-7.7-8.3-20.3-2.7-28.6c1.3-5.6,4.2-7.7,9.8-9.1c9-7.7,34.8,2.1,43.8,6.3c25.8,10.4,47.3,20.3,68.9,34.9
		c9.7,7,20.2,20.3,32.7,23.8h14.6c22.3,4.9,47.3,1.4,68.2,7.7c36.9,11.9,70.3,29.3,100.2,48.1c92.2,59,167.1,141.3,217.1,238.7
		c8.4,16,11.9,30.7,19.5,47.4c14.6,34.3,32.7,69.2,47.3,102.6c14.6,32.8,28.6,66.3,49.5,93.5c10.4,14.6,52.2,22.3,70.9,30
		c13.9,6.3,35.5,11.9,48,19.5c23.7,14.6,47.3,31.4,69.6,47.5c11.1,8.4,45.9,25.8,48,39.8c-55.7-1.4-98.8,4.2-135,19.6
		c-10.4,4.2-27.1,4.2-28.5,17.4c5.6,5.6,6.3,14.6,11.2,22.3c8.3,14,22.9,32.8,36.2,42.6c14.6,11.2,29.2,22.3,44.6,32.1
		c27.1,16.8,57.8,26.6,84.2,43.3c15.4,9.8,30.6,22.3,46,32.8c7.6,5.6,12.5,14.7,22.3,18.1v-2.1c-4.9-6.3-6.3-15.3-11.1-22.3
		c-6.9-6.9-13.9-13.2-20.9-20.2c-20.4-27-44.8-50.8-72.4-70.4c-22.3-15.4-71.1-36.4-80.1-62.1l-1.4-1.4c15.3-1.4,33.4-7,48.1-11.2
		c23.6-6.3,45.2-4.9,69.6-11.1c11.1-2.8,22.3-6.3,33.5-9.7v-6.4c-12.6-12.5-21.6-29.3-34.8-41.2c-35.5-30.7-74.5-60.7-114.9-85.9
		c-21.6-13.9-49.5-23-72.4-34.9c-8.3-4.2-22.2-6.3-27.1-13.3c-12.5-15.4-19.5-35.6-28.5-53.7c-20.6-39.7-39.6-80.3-57.1-121.5
		c-12.5-27.2-20.2-54.4-35.5-79.5c-71.7-118.7-149.7-190.5-269.4-261c-25.8-14.7-56.4-21-89.1-28.6c-17.5-0.7-34.8-2.1-52.2-2.7
		c-11.2-4.9-22.3-18.2-32.1-24.5C1626.9,778,1577.6,750.9,1537,750.3L1537,750.3z M1708.7,922.9c-11.8,0-20.1,1.4-28.5,3.5v1.4h1.3
		c5.6,11.2,15.4,18.9,22.3,28.7c5.6,11.2,10.5,22.3,16,33.5l1.4-1.4c9.8-7,14.7-18.1,14.7-34.9c-4.2-4.9-4.9-9.8-8.4-14.7
		C1723.3,932,1714.3,928.5,1708.7,922.9L1708.7,922.9z"/>
</g>
</svg>
