<?xml version="1.0" encoding="utf-8"?>
<!-- Generator: Adobe Illustrator 24.2.1, SVG Export Plug-In . SVG Version: 6.00 Build 0)  -->
<svg version="1.1" id="Layer_1" xmlns="http://www.w3.org/2000/svg" xmlns:xlink="http://www.w3.org/1999/xlink" x="0px" y="0px"
	 viewBox="0 0 1024 1774.1" style="enable-background:new 0 0 1024 1774.1;" xml:space="preserve">
<style type="text/css">
	.st0{fill:#FFFFFF;}
</style>
<path class="st0" d="M478.5,750.9c-2.2,0.2-9.2,0.9-15.5,1.4c-145.3,13.1-281.4,91.5-367.6,212c-48,67-78.7,143-90.3,223.5
	c-4.1,28.1-4.6,36.4-4.6,74.5c0,38.1,0.5,46.4,4.6,74.5C32.9,1528.9,169.6,1690.2,355,1750c33.2,10.7,68.2,18,108,22.4
	c15.5,1.7,82.5,1.7,98,0c68.7-7.6,126.9-24.6,184.3-53.9c8.8-4.5,10.5-5.7,9.3-6.7c-0.8-0.6-38.3-50.9-83.3-111.7l-81.8-110.5
	L487,1338c-56.4-83.4-102.8-151.6-103.2-151.6c-0.4-0.1-0.8,67.3-1,149.6c-0.3,144.1-0.4,149.9-2.2,153.3c-2.6,4.9-4.6,6.9-8.8,9.1
	c-3.2,1.6-6,1.9-21.1,1.9h-17.3l-4.6-2.9c-3-1.9-5.2-4.4-6.7-7.3l-2.1-4.5l0.2-200.5l0.3-200.6l3.1-3.9c1.6-2.1,5-4.8,7.4-6.1
	c4.1-2,5.7-2.2,23-2.2c20.4,0,23.8,0.8,29.1,6.6c1.5,1.6,57,85.2,123.4,185.9c66.4,100.7,157.2,238.2,201.8,305.7l81,122.7l4.1-2.7
	c36.3-23.6,74.7-57.2,105.1-92.2c64.7-74.3,106.4-164.9,120.4-261.5c4.1-28.1,4.6-36.4,4.6-74.5c0-38.1-0.5-46.4-4.6-74.5
	C991.1,995.7,854.4,834.3,669,774.5c-32.7-10.6-67.5-17.9-106.5-22.3C552.9,751.2,486.8,750.1,478.5,750.9L478.5,750.9z
	 M687.9,1060.3c4.8,2.4,8.7,7,10.1,11.8c0.8,2.6,1,58.2,0.8,183.5l-0.3,179.8l-31.7-48.6l-31.8-48.6v-130.7c0-84.5,0.4-132,1-134.3
	c1.6-5.6,5.1-10,9.9-12.6c4.1-2.1,5.6-2.3,21.3-2.3C682,1058.3,684.6,1058.5,687.9,1060.3L687.9,1060.3z"/>
<path d="M784.3,1695.3c-3.5,2.2-4.6,3.7-1.5,2c2.2-1.3,5.8-4,5.2-4.1C787.7,1693.2,786,1694.2,784.3,1695.3z M777.4,1699.8
	c-1.8,1.4-1.8,1.5,0.4,0.4c1.2-0.6,2.2-1.3,2.2-1.5C780,1697.9,779.5,1698.1,777.4,1699.8L777.4,1699.8z M772.4,1702.8
	c-1.8,1.4-1.8,1.5,0.4,0.4c1.2-0.6,2.2-1.3,2.2-1.5C775,1700.9,774.5,1701.1,772.4,1702.8L772.4,1702.8z M767.4,1705.8
	c-1.8,1.4-1.8,1.5,0.4,0.4c1.2-0.6,2.2-1.3,2.2-1.5C770,1703.9,769.5,1704.1,767.4,1705.8L767.4,1705.8z M759.8,1709.8
	c-3.8,2-3.6,2.8,0.2,0.9c1.7-0.9,3-1.8,3-2C763,1708,762.9,1708.1,759.8,1709.8z"/>
</svg>
