<?xml version="1.0" encoding="utf-8"?>
<!-- Generator: Adobe Illustrator 24.2.1, SVG Export Plug-In . SVG Version: 6.00 Build 0)  -->
<svg version="1.1" id="Layer_1" xmlns="http://www.w3.org/2000/svg" xmlns:xlink="http://www.w3.org/1999/xlink" x="0px" y="0px"
	 viewBox="0 0 2500 2283" style="enable-background:new 0 0 2500 2283;" xml:space="preserve">
<style type="text/css">
	.st0{fill:#539E43;}
	.st1{fill:#333333;}
	.st2{fill:url(#a_4_);}
	.st3{filter:url(#Adobe_OpacityMaskFilter);}
	.st4{fill:#FFFFFF;}
	.st5{mask:url(#c_1_);}
	.st6{fill:none;}
	.st7{fill:url(#SVGID_1_);}
	.st8{filter:url(#Adobe_OpacityMaskFilter_1_);}
	.st9{mask:url(#c_2_);}
	.st10{fill-rule:evenodd;clip-rule:evenodd;fill:url(#SVGID_2_);}
	.st11{fill-rule:evenodd;clip-rule:evenodd;fill:url(#SVGID_3_);}
	.st12{fill-rule:evenodd;clip-rule:evenodd;fill:url(#SVGID_4_);}
	.st13{fill-rule:evenodd;clip-rule:evenodd;fill:url(#SVGID_5_);}
	.st14{fill-rule:evenodd;clip-rule:evenodd;fill:url(#SVGID_6_);}
</style>
<g>
	<path class="st0" d="M1235.9,2278.6c-8.5,0-16.4-2.3-23.7-6.2l-75-44.6c-11.3-6.2-5.6-8.5-2.3-9.6c15.2-5.1,18.1-6.2,33.9-15.2
		c1.7-1.1,4-0.6,5.6,0.6l57.6,34.4c2.3,1.1,5.1,1.1,6.8,0l225.1-130.3c2.3-1.1,3.4-3.4,3.4-6.2v-260.1c0-2.8-1.1-5.1-3.4-6.2
		l-225.1-129.8c-2.3-1.1-5.1-1.1-6.8,0l-225.1,129.8c-2.3,1.1-3.4,3.9-3.4,6.2v260.1c0,2.3,1.1,5.1,3.4,6.2l61.5,35.5
		c33.3,16.9,54.2-2.8,54.2-22.6v-256.7c0-3.4,2.8-6.8,6.8-6.8h28.8c3.4,0,6.8,2.8,6.8,6.8v256.7c0,44.6-24.3,70.5-66.6,70.5
		c-13,0-23.1,0-51.9-14.1l-59.2-33.9c-14.7-8.5-23.7-24.3-23.7-41.2v-260.1c0-16.9,9-32.7,23.7-41.2l225.1-130.3
		c14.1-7.9,33.3-7.9,47.4,0l225.1,130.3c14.7,8.5,23.7,24.3,23.7,41.2V2102c0,16.9-9,32.7-23.7,41.2l-225.1,130.3
		C1252.3,2276.9,1243.8,2278.6,1235.9,2278.6L1235.9,2278.6z M1305.3,2099.7c-98.7,0-119.1-45.1-119.1-83.5c0-3.4,2.8-6.8,6.8-6.8
		h29.3c3.4,0,6.2,2.3,6.2,5.6c4.5,29.9,17.5,44.6,77.3,44.6c47.4,0,67.7-10.7,67.7-36.1c0-14.7-5.6-25.4-79.6-32.7
		c-61.5-6.2-99.9-19.7-99.9-68.8c0-45.7,38.4-72.8,102.7-72.8c72.2,0,107.8,24.8,112.3,79c0,1.7-0.6,3.4-1.7,5.1
		c-1.1,1.1-2.8,2.3-4.5,2.3h-29.3c-2.8,0-5.6-2.3-6.2-5.1c-6.8-31-24.3-41.2-70.5-41.2c-51.9,0-58.1,18.1-58.1,31.6
		c0,16.4,7.3,21.4,77.3,30.5c69.4,9,102.1,22,102.1,70.5C1417.6,2071.5,1377,2099.7,1305.3,2099.7z"/>
	<path class="st1" d="M537.3,1261.2c0-10.2-5.6-19.8-14.7-24.8l-239.2-137.7c-4-2.3-8.5-3.4-13-4h-2.3c-4.5,0-9,1.7-13,4L16,1236.4
		c-9,5.1-14.7,14.7-14.7,24.8l0.6,370.2c0,5.1,2.8,10.2,7.3,12.4c4.5,2.8,10.2,2.8,14.1,0l142.2-81.3c9-5.1,14.7-14.7,14.7-24.8
		v-173.2c0-10.2,5.6-19.7,14.7-24.8l60.4-35c4.5-2.8,9.6-4,14.7-4s10.2,1.1,14.1,4l60.4,35c9,5.1,14.7,14.7,14.7,24.8v173.2
		c0,10.2,5.6,19.7,14.7,24.8l142.2,81.3c4.5,2.8,10.2,2.8,14.7,0c4.5-2.3,7.3-7.3,7.3-12.4L537.3,1261.2L537.3,1261.2z
		 M1687.3,751.7c-4.5-2.3-10.2-2.3-14.1,0c-4.5,2.8-7.3,7.3-7.3,12.4v366.8c0,3.4-1.7,6.8-5.1,9c-3.4,1.7-6.8,1.7-10.2,0l-59.8-34.4
		c-8.9-5.1-19.9-5.1-28.8,0l-239.2,138.2c-9,5.1-14.7,14.7-14.7,24.8v275.9c0,10.2,5.6,19.8,14.7,24.8l239.2,138.2
		c8.9,5.1,19.9,5.1,28.8,0l239.2-138.2c9-5.1,14.7-14.7,14.7-24.8V856.6c0-10.7-5.6-20.3-14.7-25.4L1687.3,751.7L1687.3,751.7z
		 M1665.3,1453.6c0,2.8-1.1,5.1-3.4,6.2l-81.8,47.4c-2.3,1.1-5,1.1-7.3,0l-81.8-47.4c-2.3-1.1-3.4-3.9-3.4-6.2v-94.8
		c0-2.8,1.1-5.1,3.4-6.2l81.8-47.4c2.3-1.1,5-1.1,7.3,0l81.8,47.4c2.3,1.1,3.4,3.9,3.4,6.2V1453.6L1665.3,1453.6z M2483.5,1356.6
		c9-5.1,14.1-14.7,14.1-24.8v-67.1c0-10.2-5.6-19.7-14.1-24.8l-237.6-137.7c-8.9-5.1-19.9-5.1-28.8,0l-239.2,138.2
		c-9,5.1-14.7,14.7-14.7,24.8v275.9c0,10.2,5.6,19.7,14.7,24.8l237.6,135.4c9,5.1,19.7,5.1,28.2,0l143.9-80.1
		c4.5-2.3,7.3-7.3,7.3-12.4c0-5.1-2.8-10.2-7.3-12.4l-240.4-138.2c-4.5-2.8-7.3-7.3-7.3-12.4v-86.3c0-5.1,2.8-10.2,7.3-12.4l75-42.9
		c4.5-2.8,10.2-2.8,14.7,0l75,42.9c4.5,2.8,7.3,7.3,7.3,12.4v67.7c0,5.1,2.8,10.2,7.3,12.4c4.5,2.8,10.2,2.8,14.7,0L2483.5,1356.6
		L2483.5,1356.6z"/>
	<path class="st0" d="M2227.9,1343.6c1.7-1.1,3.9-1.1,5.6,0l45.7,26.5c1.7,1.1,2.8,2.8,2.8,5.1v53c0,2.3-1.1,3.9-2.8,5.1l-45.7,26.5
		c-1.7,1.1-3.9,1.1-5.6,0l-45.7-26.5c-1.7-1.1-2.8-2.8-2.8-5.1v-53c0-2.3,1.1-4,2.8-5.1L2227.9,1343.6z"/>
	<g transform="translate(134.068 70.501)">
		<g>
			
				<linearGradient id="a_4_" gradientUnits="userSpaceOnUse" x1="116.1438" y1="2445.9399" x2="115.7402" y2="2445.2173" gradientTransform="matrix(532.1024 0 0 -606.2871 -60914.8008 1484076.75)">
				<stop  offset="0" style="stop-color:#41873F"/>
				<stop  offset="0.3288" style="stop-color:#418B3D"/>
				<stop  offset="0.6352" style="stop-color:#419637"/>
				<stop  offset="0.9319" style="stop-color:#3FA92D"/>
				<stop  offset="1" style="stop-color:#3FAE2A"/>
			</linearGradient>
			<path id="a_1_" class="st2" d="M803.3,1032.7c-8.9-5.1-19.9-5.1-28.8,0L537,1169.8c-9,5.1-14.1,14.7-14.1,24.8v274.8
				c0,10.2,5.6,19.7,14.1,24.8l237.6,137.1c8.9,5.1,19.9,5.1,28.8,0l237.6-137.1c9-5.1,14.1-14.7,14.1-24.8v-274.8
				c0-10.2-5.6-19.7-14.1-24.8L803.3,1032.7z"/>
		</g>
		<defs>
			<filter id="Adobe_OpacityMaskFilter" filterUnits="userSpaceOnUse" x="520.6" y="1028.8" width="536" height="607.1">
				<feColorMatrix  type="matrix" values="1 0 0 0 0  0 1 0 0 0  0 0 1 0 0  0 0 0 1 0"/>
			</filter>
		</defs>
		<mask maskUnits="userSpaceOnUse" x="520.6" y="1028.8" width="536" height="607.1" id="c_1_">
			<g class="st3">
				<path id="a_2_" class="st4" d="M803.3,1032.7c-8.9-5.1-19.9-5.1-28.8,0L537,1169.8c-9,5.1-14.1,14.7-14.1,24.8v274.8
					c0,10.2,5.6,19.7,14.1,24.8l237.6,137.1c8.9,5.1,19.9,5.1,28.8,0l237.6-137.1c9-5.1,14.1-14.7,14.1-24.8v-274.8
					c0-10.2-5.6-19.7-14.1-24.8L803.3,1032.7z"/>
			</g>
		</mask>
		<g class="st5">
			<path class="st6" d="M774,1032.7l-238.1,137.1c-9,5.1-15.2,14.7-15.2,24.8v274.8c0,6.8,2.8,13,7.3,18.1l267.5-458.2
				C788.7,1028.2,780.8,1028.8,774,1032.7L774,1032.7z M797.1,1634.2c2.3-0.6,4.5-1.7,6.8-2.8l238.1-137.1
				c9-5.1,14.7-14.7,14.7-24.8v-274.8c0-7.3-3.4-14.7-8.5-19.7L797.1,1634.2L797.1,1634.2z"/>
			
				<linearGradient id="SVGID_1_" gradientUnits="userSpaceOnUse" x1="115.8837" y1="2445.563" x2="117.0434" y2="2446.2976" gradientTransform="matrix(519.687 0 0 -606.0386 -59470.3828 1483469.875)">
				<stop  offset="0.1376" style="stop-color:#41873F"/>
				<stop  offset="0.4032" style="stop-color:#54A044"/>
				<stop  offset="0.7136" style="stop-color:#66B848"/>
				<stop  offset="0.9081" style="stop-color:#6CC04A"/>
			</linearGradient>
			<path class="st7" d="M1041.4,1169.8l-238.7-137.1c-2.3-1.2-4.8-2.1-7.3-2.8L528,1488.1c2.2,2.7,4.9,5,7.9,6.8L774.6,1632
				c6.8,3.9,14.7,5.1,22,2.8l251.1-459.3C1046,1173.2,1043.7,1171.5,1041.4,1169.8L1041.4,1169.8z"/>
		</g>
		<defs>
			<filter id="Adobe_OpacityMaskFilter_1_" filterUnits="userSpaceOnUse" x="520.6" y="982.5" width="543.4" height="660.7">
				<feColorMatrix  type="matrix" values="1 0 0 0 0  0 1 0 0 0  0 0 1 0 0  0 0 0 1 0"/>
			</filter>
		</defs>
		<mask maskUnits="userSpaceOnUse" x="520.6" y="982.5" width="543.4" height="660.7" id="c_2_">
			<g class="st8">
				<path id="a_3_" class="st4" d="M803.3,1032.7c-8.9-5.1-19.9-5.1-28.8,0L537,1169.8c-9,5.1-14.1,14.7-14.1,24.8v274.8
					c0,10.2,5.6,19.7,14.1,24.8l237.6,137.1c8.9,5.1,19.9,5.1,28.8,0l237.6-137.1c9-5.1,14.1-14.7,14.1-24.8v-274.8
					c0-10.2-5.6-19.7-14.1-24.8L803.3,1032.7z"/>
			</g>
		</mask>
		<g class="st9">
			<path class="st6" d="M1056.7,1469.5v-274.8c0-10.2-6.2-19.7-15.2-24.8l-238.7-137.1c-2.8-1.7-5.8-2.9-9-3.4l261.2,446.3
				C1056.1,1474,1056.7,1471.7,1056.7,1469.5L1056.7,1469.5z M535.9,1169.8c-9,5.1-15.2,14.7-15.2,24.8v274.8
				c0,10.2,6.8,19.7,15.2,24.8l238.7,137.1c5.6,3.4,11.8,4.5,18.6,3.4l-255.6-465.5L535.9,1169.8L535.9,1169.8z"/>
			
				<linearGradient id="SVGID_2_" gradientUnits="userSpaceOnUse" x1="16.3757" y1="2308.4639" x2="113.7927" y2="2308.4639" gradientTransform="matrix(4.5111 0 0 -1.6941 490.2905 4894.1475)">
				<stop  offset="9.192000e-02" style="stop-color:#6CC04A"/>
				<stop  offset="0.2864" style="stop-color:#66B848"/>
				<stop  offset="0.5968" style="stop-color:#54A044"/>
				<stop  offset="0.8624" style="stop-color:#41873F"/>
			</linearGradient>
			<path class="st10" d="M766.7,982.5l-3.4,1.7h4.5L766.7,982.5z"/>
			
				<linearGradient id="SVGID_3_" gradientUnits="userSpaceOnUse" x1="115.4065" y1="2445.6147" x2="116.4654" y2="2445.6147" gradientTransform="matrix(519.1255 0 0 -606.527 -59396.2656 1484663.375)">
				<stop  offset="9.192000e-02" style="stop-color:#6CC04A"/>
				<stop  offset="0.2864" style="stop-color:#66B848"/>
				<stop  offset="0.5968" style="stop-color:#54A044"/>
				<stop  offset="0.8624" style="stop-color:#41873F"/>
			</linearGradient>
			<path class="st11" d="M1042,1494.3c6.8-3.9,11.8-10.7,14.1-18.1l-261.8-446.9c-6.8-1.1-14.1-0.6-20.3,3.4l-237,136.6l255.6,466.1
				c3.7-0.6,7.3-1.7,10.7-3.4L1042,1494.3L1042,1494.3z"/>
			
				<linearGradient id="SVGID_4_" gradientUnits="userSpaceOnUse" x1="-128.7756" y1="2387.0066" x2="-31.3586" y2="2387.0066" gradientTransform="matrix(1.6941 0 0 -3.9497 1115.9288 10916.8008)">
				<stop  offset="9.192000e-02" style="stop-color:#6CC04A"/>
				<stop  offset="0.2864" style="stop-color:#66B848"/>
				<stop  offset="0.5968" style="stop-color:#54A044"/>
				<stop  offset="0.8624" style="stop-color:#41873F"/>
			</linearGradient>
			<path class="st12" d="M1064,1489.8l-1.7-2.8v3.9L1064,1489.8L1064,1489.8z"/>
			
				<linearGradient id="SVGID_5_" gradientUnits="userSpaceOnUse" x1="113.9626" y1="2444.6086" x2="116.0092" y2="2444.6086" gradientTransform="matrix(268.5875 0 0 -167.5852 -30094.707 411239.6875)">
				<stop  offset="9.192000e-02" style="stop-color:#6CC04A"/>
				<stop  offset="0.2864" style="stop-color:#66B848"/>
				<stop  offset="0.5968" style="stop-color:#54A044"/>
				<stop  offset="0.8624" style="stop-color:#41873F"/>
			</linearGradient>
			<path class="st13" d="M1042,1494.3l-238.1,137.1c-3.4,1.7-7,2.9-10.7,3.4l4.5,8.5l264.1-152.9v-3.4l-6.8-11.3
				C1053.9,1483.6,1048.8,1490.3,1042,1494.3L1042,1494.3z"/>
			
				<linearGradient id="SVGID_6_" gradientUnits="userSpaceOnUse" x1="116.3055" y1="2447.22" x2="115.0434" y2="2443.0933" gradientTransform="matrix(268.5875 0 0 -167.5852 -30094.707 411239.6875)">
				<stop  offset="0" style="stop-color:#41873F"/>
				<stop  offset="0.3288" style="stop-color:#418B3D"/>
				<stop  offset="0.6352" style="stop-color:#419637"/>
				<stop  offset="0.9319" style="stop-color:#3FA92D"/>
				<stop  offset="1" style="stop-color:#3FAE2A"/>
			</linearGradient>
			<path class="st14" d="M1042,1494.3l-238.1,137.1c-3.4,1.7-7,2.9-10.7,3.4l4.5,8.5l264.1-152.9v-3.4l-6.8-11.3
				C1053.9,1483.6,1048.8,1490.3,1042,1494.3L1042,1494.3z"/>
		</g>
	</g>
</g>
</svg>
