<?xml version="1.0" encoding="utf-8"?>
<!-- Generator: Adobe Illustrator 24.2.1, SVG Export Plug-In . SVG Version: 6.00 Build 0)  -->
<svg version="1.1" id="Layer_1" xmlns="http://www.w3.org/2000/svg" xmlns:xlink="http://www.w3.org/1999/xlink" x="0px" y="0px"
	 viewBox="0 0 2424 3246.5" style="enable-background:new 0 0 2424 3246.5;" xml:space="preserve">
<style type="text/css">
	.st0{fill:#336791;}
	.st1{fill:#FFFFFF;}
</style>
<path d="M2414.6,2243.4c-14.5-44-52.6-74.7-101.8-82c-23.2-3.5-49.8-2-81.3,4.5c-54.8,11.3-95.5,15.6-125.2,16.5
	c112.1-189.2,203.2-405,255.7-608.2c84.8-328.5,39.5-478.1-13.5-545.8C2208.3,849.3,2003.7,753,1757,750.1
	c-131.6-1.6-247.2,24.4-307.5,43.1c-56.1-9.9-116.5-15.4-179.8-16.5c-118.7-1.9-223.6,24-313.2,77.2
	c-49.6-16.8-129.2-40.4-221.2-55.5c-216.3-35.5-390.6-7.8-518.1,82.2C62.7,989.6-8.9,1179.1,4.4,1443.8
	c4.2,84,51.2,339.7,125.2,582.1c42.5,139.4,87.9,255.1,134.8,344c66.5,126.1,137.7,200.3,217.7,227c44.8,14.9,126.2,25.4,211.8-45.9
	c10.9,13.1,25.3,26.2,44.5,38.3c24.4,15.4,54.2,28,84,35.4c107.4,26.8,208,20.1,293.8-17.5c0.5,15.3,0.9,29.8,1.3,42.4
	c0.6,20.4,1.1,40.5,1.9,59.2c5.1,126.6,13.7,225.1,39.2,294c1.4,3.8,3.3,9.6,5.3,15.7c12.7,39,34,104.3,88.2,155.4
	c56.1,53,124,69.2,186.1,69.2c31.2,0,60.9-4.1,87-9.7c93-19.9,198.6-50.3,275-159.1c72.2-102.8,107.3-257.7,113.7-501.7
	c0.8-6.9,1.6-13.5,2.3-19.8l1.5-12.9l17,1.5l4.4,0.3c94.7,4.3,210.5-15.8,281.6-48.8C2276.9,2466.8,2457,2371.8,2414.6,2243.4"/>
<path class="st0" d="M2252.7,2268.4c-281.6,58.1-301-37.3-301-37.3c297.3-441.2,421.6-1001.2,314.4-1138.2
	c-292.6-373.9-799.2-197.1-807.6-192.5l-2.7,0.5c-55.6-11.6-117.9-18.4-187.9-19.6c-127.4-2.1-224.1,33.4-297.4,89
	c0,0-903.6-372.3-861.6,468.2c8.9,178.8,256.3,1352.8,551.3,998.2c107.8-129.7,212-239.3,212-239.3c51.7,34.4,113.7,51.9,178.6,45.6
	l5-4.3c-1.6,16.1-0.9,31.8,2,50.5c-76,84.9-53.7,99.8-205.6,131.1c-153.7,31.7-63.4,88.1-4.5,102.8
	c71.5,17.9,236.8,43.2,348.6-113.2l-4.5,17.8c29.8,23.9,50.7,155.1,47.2,274.1s-5.8,200.7,17.6,264.5
	c23.5,63.8,46.9,207.4,246.6,164.6c166.9-35.8,253.3-128.4,265.4-283c8.5-109.9,27.9-93.6,29.1-191.9l15.5-46.5
	c17.9-149,2.8-197,105.6-174.7l25,2.2c75.7,3.4,174.7-12.2,232.8-39.2C2301.8,2339.9,2376.1,2242.9,2252.7,2268.4L2252.7,2268.4"/>
<path class="st1" d="M1023.3,1518.5c-25.4-3.5-48.4-0.3-60,8.5c-6.5,5-8.6,10.7-9.1,14.6c-1.5,10.5,5.9,22,10.4,28
	c12.7,16.9,31.4,28.5,49.8,31.1c2.7,0.4,5.3,0.5,8,0.5c30.7,0,58.7-23.9,61.1-41.6C1086.6,1537.6,1054.5,1522.8,1023.3,1518.5
	 M1864,1519.2c-2.4-17.3-33.3-22.3-62.6-18.2c-29.2,4.1-57.6,17.3-55.2,34.6c1.9,13.5,26.3,36.6,55.2,36.6c2.4,0,4.9-0.2,7.4-0.5
	c19.3-2.7,33.4-14.9,40.1-22C1859.2,1539,1865.1,1527,1864,1519.2"/>
<path class="st1" d="M2346.4,2261.8c-10.7-32.5-45.3-42.9-102.7-31.1c-170.5,35.2-231.5,10.8-251.6-3.9
	c132.5-201.9,241.5-445.9,300.3-673.6c27.9-107.8,43.2-208,44.5-289.6c1.4-89.6-13.9-155.4-45.3-195.7
	c-126.9-162.2-313.2-249.1-538.6-251.5c-155-1.7-285.9,37.9-311.3,49.1c-53.5-13.3-111.7-21.5-175.2-22.5
	c-116.4-1.9-216.9,26-300.2,82.8c-36.2-13.5-129.6-45.6-244-64c-197.6-31.8-354.7-7.7-466.8,71.7c-133.7,94.6-195.4,264-183.5,503.3
	c4,80.5,49.9,328.1,122.3,565.3c95.3,312.1,198.8,488.8,307.8,525.2c12.8,4.3,27.5,7.2,43.7,7.2c39.7,0,88.5-17.9,139.2-78.9
	c61.8-74.2,125.8-146.6,191.8-217.1c42.8,23,89.9,35.8,138,37.1c0.1,1.3,0.2,2.5,0.3,3.8c-8.3,9.9-16.4,19.9-24.3,30.1
	c-33.3,42.3-40.3,51.2-147.6,73.3c-30.5,6.3-111.6,23-112.8,79.9c-1.3,62.1,95.9,88.2,106.9,91c38.6,9.7,75.7,14.4,111.2,14.4
	c86.2,0,162-28.3,222.7-83.1c-1.9,221.4,7.4,439.6,34,506.1c21.8,54.4,75,187.4,243,187.4c24.7,0,51.8-2.9,81.6-9.3
	c175.4-37.6,251.5-115.1,281-286c15.8-91.3,42.8-309.4,55.5-426.4c26.9,8.4,61.4,12.2,98.8,12.2c77.9,0,167.9-16.6,224.3-42.7
	C2252.8,2396.7,2367.1,2324.5,2346.4,2261.8L2346.4,2261.8z M1928.7,1471.3c-0.6,34.5-5.3,65.9-10.4,98.6
	c-5.4,35.2-11,71.6-12.4,115.8c-1.4,43,4,87.7,9.2,130.9c10.5,87.3,21.3,177.2-20.4,265.9c-6.9-12.3-13.1-24.9-18.5-38
	c-5.2-12.6-16.4-32.7-32-60.6c-60.6-108.7-202.5-363.1-129.8-467C1736,1486,1790.9,1454.2,1928.7,1471.3L1928.7,1471.3z
	 M1761.7,886.3c202,4.5,361.8,80,474.9,224.6c86.8,110.9-8.8,615.4-285.4,1050.7c-2.8-3.5-5.6-7.1-8.4-10.6l-3.5-4.4
	c71.5-118,57.5-234.8,45.1-338.4c-5.1-42.5-9.9-82.6-8.7-120.3c1.3-40,6.6-74.2,11.7-107.4c6.3-40.8,12.7-83.1,10.9-132.9
	c1.3-5.2,1.8-11.4,1.2-18.7c-4.5-47.8-59-190.7-170.2-320.1c-60.8-70.8-149.5-150-270.6-203.4
	C1610.7,894.6,1681.9,884.5,1761.7,886.3L1761.7,886.3z M631.3,2410.9c-55.9,67.2-94.4,54.3-107.1,50.1
	c-82.7-27.6-178.6-202.3-263.1-479.3c-73.2-239.7-115.9-480.8-119.3-548.4c-10.7-213.8,41.1-362.8,154-442.8
	c183.7-130.3,485.8-52.3,607.2-12.8c-1.7,1.7-3.6,3.3-5.3,5.1c-199.2,201.1-194.5,544.8-194,565.8c0,8.1,0.7,19.6,1.6,35.4
	c3.4,57.8,9.8,165.4-7.2,287.2c-15.8,113.2,19.1,224,95.7,304c7.9,8.2,16.1,16,24.8,23.4C784.4,2235.1,710.3,2316,631.3,2410.9
	L631.3,2410.9z M844.2,2126.9c-61.8-64.5-89.9-154.2-77-246.1c18-128.7,11.4-240.8,7.8-301c-0.5-8.4-0.9-15.8-1.2-21.6
	c29.1-25.8,163.9-98,260.1-76c43.9,10,70.6,39.9,81.7,91.3c57.5,266.1,7.6,377-32.5,466.1c-8.3,18.4-16.1,35.7-22.7,53.7l-5.2,13.9
	c-13.1,35.1-25.3,67.7-32.8,98.7C956.7,2205.7,892.8,2177.6,844.2,2126.9L844.2,2126.9z M854.3,2485.8c-19.2-4.8-36.4-13.1-46.6-20
	c8.5-4,23.5-9.4,49.6-14.8c126.3-26,145.8-44.3,188.4-98.4c9.8-12.4,20.8-26.5,36.2-43.6l0,0c22.8-25.6,33.3-21.2,52.2-13.4
	c15.3,6.3,30.3,25.6,36.4,46.8c2.9,10,6.1,29-4.5,43.7C1077,2510.7,947.4,2509.1,854.3,2485.8z M1515.2,3100.8
	c-154.5,33.1-209.2-45.7-245.2-135.8c-23.3-58.2-34.7-320.5-26.6-610.2c0.1-3.9-0.4-7.6-1.5-11.1c-0.9-6.9-2.4-13.8-4.3-20.5
	c-12.1-42.2-41.5-77.4-76.7-92c-14-5.8-39.7-16.5-70.6-8.6c6.6-27.2,18-57.8,30.4-91l5.2-14c5.9-15.7,13.2-32.1,21-49.3
	c42-93.2,99.5-221,37.1-509.5c-23.4-108.1-101.4-160.9-219.7-148.6c-70.9,7.3-135.8,36-168.2,52.4c-7,3.5-13.3,6.9-19.3,10.2
	c9-108.9,43.2-312.4,170.8-441.1c80.4-81.1,187.4-121.1,317.8-118.9c257,4.2,421.8,136.1,514.8,246
	c80.1,94.7,123.5,190.1,140.9,241.5c-130.2-13.2-218.8,12.5-263.7,76.7c-97.7,139.6,53.4,410.7,126.1,540.9
	c13.3,23.9,24.8,44.5,28.4,53.3c23.7,57.3,54.3,95.6,76.6,123.5c6.9,8.6,13.5,16.9,18.6,24.1c-39.4,11.4-110.3,37.6-103.8,169
	c-5.2,65.9-42.2,374.5-61.1,483.5C1717.2,3015.2,1664.2,3068.9,1515.2,3100.8L1515.2,3100.8z M2160,2362.9
	c-40.3,18.7-107.8,32.8-172,35.8c-70.8,3.3-106.9-7.9-115.4-14.9c-4-81.8,26.5-90.4,58.7-99.5c5.1-1.4,10-2.8,14.8-4.5
	c3,2.4,6.2,4.8,9.8,7.2c56.9,37.6,158.5,41.6,301.8,12l1.6-0.3C2240,2316.8,2206.9,2341.1,2160,2362.9L2160,2362.9z"/>
</svg>
