<?xml version="1.0" encoding="utf-8"?>
<!-- Generator: Adobe Illustrator 24.2.1, SVG Export Plug-In . SVG Version: 6.00 Build 0)  -->
<svg version="1.1" id="Layer_1" xmlns="http://www.w3.org/2000/svg" xmlns:xlink="http://www.w3.org/1999/xlink" x="0px" y="0px"
	 viewBox="0 0 2500 2259.7" style="enable-background:new 0 0 2500 2259.7;" xml:space="preserve">
<style type="text/css">
	.st0{fill:url(#SVGID_1_);}
</style>
<linearGradient id="SVGID_1_" gradientUnits="userSpaceOnUse" x1="249.873" y1="2508.2197" x2="250.9008" y2="2507.8643" gradientTransform="matrix(2500 0 0 -1500 -624750 3763564)">
	<stop  offset="0" style="stop-color:#2298BD"/>
	<stop  offset="1" style="stop-color:#0ED7B5"/>
</linearGradient>
<path class="st0" d="M1250,757.7c-333.3,0-541.7,166.7-625,500c125-166.7,270.8-229.2,437.5-187.5c95.1,23.8,163.1,92.8,238.3,169.1
	c122.6,124.4,264.4,268.4,574.2,268.4c333.3,0,541.7-166.7,625-500c-125,166.7-270.8,229.2-437.5,187.5
	c-95.1-23.8-163.1-92.8-238.3-169.1C1701.7,901.7,1559.8,757.7,1250,757.7z M625,1507.7c-333.3,0-541.7,166.7-625,500
	c125-166.7,270.8-229.2,437.5-187.5c95.1,23.8,163.1,92.8,238.3,169.1c122.6,124.4,264.4,268.4,574.2,268.4
	c333.3,0,541.7-166.7,625-500c-125,166.7-270.8,229.2-437.5,187.5c-95.1-23.8-163.1-92.8-238.3-169.1
	C1076.7,1651.7,934.8,1507.7,625,1507.7z"/>
</svg>
